<svg xmlns="http://www.w3.org/2000/svg" xmlns:xlink="http://www.w3.org/1999/xlink" viewBox="0,0,255.99454,255.99454" width="100px" height="100px" fill-rule="nonzero"><g fill="none" fill-rule="nonzero" stroke="none" stroke-width="1" stroke-linecap="butt" stroke-linejoin="miter" stroke-miterlimit="10" stroke-dasharray="" stroke-dashoffset="0" font-family="none" font-weight="none" font-size="none" text-anchor="none" style="mix-blend-mode: normal"><g transform="scale(2.56,2.56)"><circle cx="13" cy="29" r="2" fill="#d92e44"></circle><circle cx="77" cy="13" r="1" fill="#f1bc19"></circle><circle cx="50" cy="50" r="37" fill="#fce0a2"></circle><circle cx="83" cy="15" r="4" fill="#f1bc19"></circle><circle cx="87" cy="24" r="2" fill="#d92e44"></circle><circle cx="81" cy="76" r="2" fill="#fbcd59"></circle><circle cx="15" cy="63" r="4" fill="#fbcd59"></circle><circle cx="25" cy="87" r="2" fill="#d92e44"></circle><circle cx="18.5" cy="53.5" r="2.5" fill="#000000"></circle><circle cx="21" cy="67" r="1" fill="#f1bc19"></circle><circle cx="80" cy="34" r="1" fill="#000000"></circle><g fill-opacity="0" fill="#9b3028"><path d="M36.437,72.3c-4.817,0 -8.737,-3.92 -8.737,-8.737v-27.125c0,-4.817 3.92,-8.737 8.737,-8.737h27.125c4.817,0 8.737,3.92 8.737,8.737v27.125c0,4.817 -3.92,8.737 -8.737,8.737z"></path><path d="M63.562,28.4c4.432,0 8.037,3.606 8.037,8.037v27.125c0,4.432 -3.606,8.037 -8.037,8.037h-27.125c-4.432,0 -8.037,-3.606 -8.037,-8.037v-27.124c0,-4.432 3.606,-8.037 8.037,-8.037h27.125M63.562,27h-27.125c-5.19,0 -9.437,4.247 -9.437,9.438v27.125c0,5.19 4.247,9.437 9.437,9.437h27.125c5.191,0 9.438,-4.247 9.438,-9.437v-27.125c0,-5.191 -4.247,-9.438 -9.438,-9.438z"></path></g><g fill="#d92e44"><path d="M66,43c0,0 -7,0 -8,-8h-6v14.024v6.976l-0.05,3c-0.252,2.247 -2.136,4 -4.45,4c-2.485,0 -4.5,-2.015 -4.5,-4.5c0,-2.485 2.015,-4.5 4.5,-4.5c0.171,0 0.334,0.032 0.5,0.05v-6.025c-0.167,-0.008 -0.331,-0.025 -0.5,-0.025c-5.799,0 -10.5,4.701 -10.5,10.5c0,5.799 4.701,10.5 10.5,10.5c5.63,0 10.212,-4.435 10.475,-10h0.025v-12.76c1.98,1.623 4.584,2.76 8,2.76c0,-2 0,-6 0,-6z"></path></g><g fill-opacity="0" fill="#9b3028"><path d="M58,57c-0.138,0 -0.25,-0.112 -0.25,-0.25v-8.625c0,-0.138 0.112,-0.25 0.25,-0.25c0.138,0 0.25,0.112 0.25,0.25v8.625c0,0.138 -0.112,0.25 -0.25,0.25z"></path></g><g fill-opacity="0" fill="#9b3028"><path d="M47.5,69.25c-0.799,0 -1.595,-0.088 -2.366,-0.261c-0.135,-0.03 -0.22,-0.164 -0.189,-0.299c0.03,-0.134 0.159,-0.221 0.299,-0.189c1.468,0.329 3.038,0.331 4.5,0.002c0.324,-0.071 0.647,-0.16 0.963,-0.265c0.398,-0.132 0.788,-0.288 1.157,-0.463c3.438,-1.624 5.683,-4.991 5.861,-8.787c0.007,-0.134 0.116,-0.238 0.25,-0.238c0.138,0 0.263,0.112 0.263,0.25c0,0.034 -0.006,0.066 -0.018,0.097c-0.216,3.946 -2.563,7.439 -6.143,9.13c-0.388,0.185 -0.796,0.348 -1.215,0.486c-0.331,0.109 -0.671,0.203 -1.011,0.278c-0.764,0.172 -1.555,0.259 -2.351,0.259z"></path></g><g fill-opacity="0" fill="#9b3028"><path d="M43.354,56.998c-0.032,0 -0.065,-0.006 -0.098,-0.02c-0.127,-0.054 -0.187,-0.201 -0.133,-0.328c0.746,-1.762 2.464,-2.9 4.377,-2.9c0.085,0 0.168,0.007 0.25,0.017v-5.741c0,-0.138 0.112,-0.25 0.25,-0.25c0.138,0 0.25,0.112 0.25,0.25v6.025c0,0.071 -0.03,0.139 -0.083,0.187c-0.054,0.047 -0.124,0.067 -0.194,0.062l-0.154,-0.02c-0.104,-0.014 -0.21,-0.029 -0.318,-0.029c-1.712,0 -3.249,1.019 -3.916,2.596c-0.042,0.093 -0.134,0.151 -0.231,0.151z"></path></g><g fill-opacity="0" fill="#9b3028"><path d="M66,49.25c-1.45,0 -2.831,-0.205 -4.106,-0.609c-0.132,-0.042 -0.205,-0.183 -0.163,-0.313c0.042,-0.132 0.187,-0.205 0.313,-0.163c1.153,0.365 2.399,0.562 3.706,0.584v-5.509c-0.66,-0.044 -2.505,-0.277 -4.288,-1.503c-0.114,-0.078 -0.143,-0.234 -0.064,-0.348c0.079,-0.113 0.236,-0.141 0.348,-0.064c2.048,1.408 4.233,1.425 4.255,1.425c0.138,0 0.25,0.112 0.25,0.25v6c-0.001,0.138 -0.113,0.25 -0.251,0.25z"></path></g><g><path d="M45.5,67.5c-6.065,0 -11,-4.935 -11,-11c0,-6.065 4.935,-11 11,-11c0.12,0 0.237,0.008 0.355,0.016l0.168,0.011c0.267,0.012 0.477,0.232 0.477,0.499v6.025c0,0.143 -0.061,0.277 -0.167,0.373c-0.092,0.082 -0.211,0.127 -0.333,0.127c-0.019,0 -0.216,-0.023 -0.216,-0.023c-0.094,-0.013 -0.187,-0.028 -0.284,-0.028c-2.206,0 -4,1.794 -4,4c0,2.206 1.794,4 4,4c2.026,0 3.726,-1.528 3.952,-3.556l0.048,-2.953v-20.991c0,-0.276 0.224,-0.5 0.5,-0.5h6c0.252,0 0.465,0.188 0.496,0.438c0.932,7.45 7.237,7.562 7.505,7.563c0.275,0.001 0.499,0.225 0.499,0.5v6c0,0.276 -0.224,0.5 -0.5,0.5c-2.828,0 -5.346,-0.758 -7.5,-2.255v11.754c0,0.064 -0.013,0.126 -0.034,0.184c-0.357,5.797 -5.143,10.316 -10.966,10.316z" fill="#000000"></path><path d="M56,33c1,8 8,8 8,8c0,0 0,4 0,6c-3.416,0 -6.02,-1.136 -8,-2.76v12.76h-0.025c-0.263,5.565 -4.845,10 -10.475,10c-5.799,0 -10.5,-4.701 -10.5,-10.5c0,-5.799 4.701,-10.5 10.5,-10.5c0.169,0 0.333,0.017 0.5,0.025v6.025c-0.166,-0.018 -0.329,-0.05 -0.5,-0.05c-2.485,0 -4.5,2.015 -4.5,4.5c0,2.485 2.015,4.5 4.5,4.5c2.314,0 4.198,-1.753 4.45,-4l0.05,-3v-6.976v-14.024h6M56,32h-6c-0.552,0 -1,0.448 -1,1v14.024v6.976l-0.049,2.933c-0.219,1.752 -1.694,3.067 -3.451,3.067c-1.93,0 -3.5,-1.57 -3.5,-3.5c0,-1.93 1.57,-3.5 3.5,-3.5c0.075,0 0.147,0.013 0.219,0.023l0.169,0.022c0.037,0.004 0.074,0.006 0.111,0.006c0.245,0 0.482,-0.09 0.667,-0.255c0.213,-0.19 0.334,-0.461 0.334,-0.746v-6.025c0,-0.534 -0.419,-0.974 -0.953,-0.999l-0.156,-0.01c-0.13,-0.008 -0.259,-0.016 -0.391,-0.016c-6.341,0 -11.5,5.159 -11.5,11.5c0,6.341 5.159,11.5 11.5,11.5c6.069,0 11.06,-4.695 11.461,-10.729c0.025,-0.086 0.039,-0.177 0.039,-0.271v-10.839c2.057,1.221 4.403,1.839 7,1.839c0.552,0 1,-0.448 1,-1v-6c0,-0.552 -0.448,-1 -1,-1c-0.246,-0.002 -6.134,-0.131 -7.008,-7.124c-0.062,-0.5 -0.488,-0.876 -0.992,-0.876z" fill-opacity="0" fill="#9b3028"></path></g><g fill="#20c997"><path d="M64,41.892c0,-0.54 0,-0.892 0,-0.892c0,0 -2.649,-0.007 -4.921,-1.871c1.608,1.91 3.701,2.554 4.921,2.763z"></path><path d="M42.866,60.134c0.818,1.126 2.136,1.866 3.634,1.866c2.314,0 4.198,-1.753 4.45,-4l0.05,-3v-6.976v-14.024h5.181c-0.067,-0.324 -0.136,-0.645 -0.181,-1h-6v14.024v6.976l-0.05,3c-0.252,2.247 -2.136,4 -4.45,4c-0.987,0 -1.892,-0.327 -2.634,-0.866z"></path><path d="M36,57.5c0,-5.63 4.435,-10.212 10,-10.475v-1c-0.167,-0.008 -0.331,-0.025 -0.5,-0.025c-5.799,0 -10.5,4.701 -10.5,10.5c0,3.154 1.398,5.976 3.599,7.901c-1.614,-1.846 -2.599,-4.256 -2.599,-6.901z"></path></g><g fill-opacity="0" fill="#9b3028"><path d="M51,46.25c-0.138,0 -0.25,-0.112 -0.25,-0.25v-12c0,-0.138 0.112,-0.25 0.25,-0.25h5.181c0.138,0 0.25,0.112 0.25,0.25c0,0.138 -0.112,0.25 -0.25,0.25h-4.931v11.75c0,0.138 -0.112,0.25 -0.25,0.25z"></path><path d="M51,55.25c-0.138,0 -0.25,-0.112 -0.25,-0.25v-6.976c0,-0.138 0.112,-0.25 0.25,-0.25c0.138,0 0.25,0.112 0.25,0.25v6.976c0,0.138 -0.112,0.25 -0.25,0.25z"></path><path d="M46.5,62.25c-0.138,0 -0.25,-0.112 -0.25,-0.25c0,-0.138 0.112,-0.25 0.25,-0.25c2.154,0 3.96,-1.624 4.201,-3.777l0.022,-1.436c0.002,-0.137 0.114,-0.246 0.25,-0.246c0.001,0 0.003,0 0.004,0c0.139,0.002 0.248,0.116 0.246,0.254l-0.024,1.459c-0.27,2.431 -2.29,4.246 -4.699,4.246z"></path><path d="M42.367,48.107c-0.097,0 -0.189,-0.057 -0.229,-0.151c-0.055,-0.127 0.004,-0.274 0.131,-0.328c1.181,-0.505 2.432,-0.792 3.72,-0.853c0.121,0.013 0.255,0.101 0.262,0.238c0.006,0.138 -0.101,0.255 -0.238,0.262c-1.228,0.058 -2.421,0.331 -3.546,0.812c-0.033,0.014 -0.067,0.02 -0.1,0.02z"></path><path d="M36,57.75c-0.138,0 -0.25,-0.112 -0.25,-0.25c0,-3.713 1.881,-7.112 5.03,-9.093c0.116,-0.07 0.271,-0.039 0.345,0.079c0.073,0.116 0.038,0.271 -0.079,0.345c-3.003,1.888 -4.796,5.129 -4.796,8.669c0,0.138 -0.112,0.25 -0.25,0.25z"></path></g></g></g></svg>